<svg width="250" height="250" fill="none" xmlns="http://www.w3.org/2000/svg"><g clip-path="url('#clip0_422_29')"><path d="M125 250c69.036 0 125-55.964 125-125S194.036 0 125 0 0 55.964 0 125s55.964 125 125 125Z" fill="#0B0D08"/><path d="M34.33 128.89c-4.88 4.88-12.785 4.88-17.665 0 4.88-4.88 12.785-4.88 17.665 0ZM90.84 84.595c-5.18 4.555-13.075 4.045-17.625-1.14 5.18-4.555 13.075-4.045 17.625 1.14ZM222.7 108.685c-5.39 4.31-13.25 3.43-17.555-1.955 5.39-4.31 13.25-3.43 17.555 1.955ZM175.565 192.385c-4.695 5.055-12.595 5.345-17.65.655 4.695-5.055 12.595-5.345 17.65-.655ZM103.665 162.71c-4.695 5.055-12.595 5.345-17.65.655 4.695-5.055 12.595-5.345 17.65-.655ZM184.395 57.89c-4.88 4.88-12.785 4.88-17.665 0 4.88-4.88 12.785-4.88 17.665 0Z" fill="#F8FDEA"/><path d="M124.075 114.955c-.265-5.2-.585-12.325-.845-20.8-.68-22.185-.48-39.06-.32-51.64.15-11.52.465-25.855 1.155-42.39l6.17 78.41c.045.59.045 1.19 0 1.78l-6.16 34.635v.005Z" fill="#F8FDEA" stroke="#F8FDEA" stroke-width="1.09" stroke-linecap="round" stroke-linejoin="round"/><path d="M124.075 126c-.265-5.7-.585-13.515-.845-22.8-.68-24.32-.48-42.815-.32-56.605.15-12.63.465-28.34 1.155-46.47l6.17 85.95c.045.65.045 1.305 0 1.955l-6.16 37.97Z" fill="#F8FDEA" stroke="#F8FDEA" stroke-width="1.14" stroke-linecap="round" stroke-linejoin="round"/><path d="M126.185 124.94c-4.865 3.12-11.55 7.36-19.56 12.295-20.97 12.92-37.28 22.135-49.445 28.99-11.14 6.28-25.07 13.97-41.3 22.57l72.235-48.935c.545-.37 1.12-.7 1.71-.99l36.36-13.93Z" fill="#F8FDEA" stroke="#F8FDEA" stroke-width="1.145" stroke-linecap="round" stroke-linejoin="round"/><path d="M122.695 124.335c5.12 2.7 12.115 6.43 20.37 10.975 21.61 11.895 37.69 21.56 49.665 28.775 10.97 6.61 24.55 14.945 40.055 24.845l-78.29-38.79c-.59-.295-1.165-.63-1.71-1l-30.09-24.795v-.01Z" fill="#F8FDEA" stroke="#F8FDEA" stroke-width=".6" stroke-linecap="round" stroke-linejoin="round"/><path d="M128.93 353.145h-9.12l2.41-219.29c0-2.41.805-4.365 1.8-4.365h.7c.995 0 1.8 1.955 1.8 4.365l2.41 219.29Z" fill="#F8FDEA" stroke="#F8FDEA" stroke-width="1.015" stroke-linecap="round" stroke-linejoin="round"/><path d="M124.37 131.555a5.9 5.9 0 1 0-.001-11.801 5.9 5.9 0 0 0 .001 11.801Z" fill="#F8FDEA" stroke="#F8FDEA" stroke-width=".6" stroke-linecap="round" stroke-linejoin="round"/><path d="M124.37 133.935a8.28 8.28 0 1 0 0-16.56 8.28 8.28 0 0 0 0 16.56Z" fill="#F8FDEA" stroke="#F8FDEA" stroke-width=".84" stroke-linecap="round" stroke-linejoin="round"/></g><defs><clipPath id="clip0_422_29"><path fill="#fff" d="M0 0h250v250H0z"/></clipPath></defs></svg>